<?xml version="1.0" encoding="UTF-8"?>
<svg version="1.1" xmlns="http://www.w3.org/2000/svg" width="1920" height="1080">
<path d="M0 0 C46.66843884 -0.18300574 93.33683979 -0.32402373 140.00556655 -0.40852264 C145.51193102 -0.41852861 151.01829479 -0.42888315 156.5246582 -0.43945312 C157.62090227 -0.44155161 158.71714634 -0.44365009 159.84660993 -0.44581217 C177.61012328 -0.48064773 195.37343006 -0.54373801 213.13682076 -0.61722237 C231.35602194 -0.69196521 249.57511476 -0.73645553 267.79446298 -0.75270796 C279.04204462 -0.76369946 290.28904248 -0.79844665 301.53644446 -0.86333174 C309.24329704 -0.90553406 316.94984668 -0.91842031 324.65680649 -0.90801102 C329.10733727 -0.90287334 333.55684616 -0.91089196 338.00719643 -0.9536438 C342.07955006 -0.99247982 346.15019166 -0.99460808 350.22262291 -0.96719116 C351.69783742 -0.96380127 353.17315728 -0.97403608 354.64816334 -0.99906546 C365.62637506 -1.17456353 365.62637506 -1.17456353 368.87717575 1.60514134 C370.22304337 3.68801931 371.12350783 5.68408233 372 8 C372.60095584 9.1216219 373.20191168 10.24324381 373.8210783 11.39885426 C374.38605432 12.53194869 374.95103033 13.66504313 375.53312683 14.83247375 C375.85294393 15.47110468 376.17276104 16.1097356 376.50226957 16.76771897 C377.55894847 18.88013424 378.60991733 20.99533578 379.66088867 23.1105957 C380.42336535 24.63775356 381.1862028 26.16473134 381.94937134 27.69154358 C383.58641429 30.96855239 385.22093327 34.24680305 386.85347557 37.52605629 C389.44430919 42.73012643 392.04091008 47.93130561 394.63825989 53.13212585 C398.75518237 61.37733764 402.86836548 69.62440815 406.97990161 77.872307 C414.31854787 92.59386219 421.66152107 107.31325729 429.00886327 122.03047436 C431.5801257 127.18131606 434.14908093 132.33329994 436.71628493 137.48616546 C444.65171395 153.41103775 452.61179833 169.30721796 461 185 C462.73011907 188.32274027 464.43961738 191.65438972 466.125 195 C466.70121094 196.12148438 466.70121094 196.12148438 467.2890625 197.265625 C470 202.64877232 470 202.64877232 470 206 C468.53954474 205.9922694 468.53954474 205.9922694 467.04958534 205.98438263 C443.19542412 205.85815722 419.34125758 205.73297657 395.48708534 205.60884857 C383.95069755 205.54879422 372.41431161 205.48841855 360.87792969 205.42724609 C350.80543493 205.37383686 340.73293702 205.32107158 330.66043508 205.26903296 C325.34296317 205.24153949 320.02549319 205.21375536 314.70802689 205.18519592 C304.10394099 205.12844608 293.49987551 205.07659118 282.89571273 205.03642988 C277.68251012 205.01544806 272.46959704 204.98169354 267.25654805 204.9366622 C264.06107349 204.91052805 260.86558557 204.89222472 257.67004848 204.87567997 C256.20386366 204.86624847 254.73769644 204.85331004 253.27157712 204.8365469 C251.28427312 204.81415091 249.29683089 204.80522301 247.30941772 204.79699707 C246.20381689 204.78791573 245.09821606 204.77883438 243.95911217 204.76947784 C240.876145 205.00964861 238.73783697 205.57696226 236 207 C234.35003707 209.55426164 234.35003707 209.55426164 233.1796875 212.7890625 C232.93338593 213.40254547 232.68708435 214.01602844 232.43331909 214.64810181 C231.59790872 216.75681975 230.79598417 218.87609826 230 221 C229.56838562 222.14196838 229.56838562 222.14196838 229.12805176 223.30700684 C227.1223049 228.63608321 225.16872313 233.98347519 223.22747803 239.33633423 C221.27088387 244.72912714 219.30002361 250.11669386 217.328125 255.50390625 C216.90598724 256.65737045 216.48384949 257.81083466 216.04891968 258.99925232 C210.99578563 272.77885549 205.8204217 286.51241692 200.65146255 300.24887848 C193.15010494 320.18540074 185.71283352 340.14088589 178.4710083 360.17355347 C173.68575777 373.40892092 168.80629129 386.60495584 163.84585571 399.77563477 C157.20830285 417.3997202 150.66853823 435.05952624 144.13964844 452.72412109 C143.73862915 453.80825287 143.33760986 454.89238464 142.92443848 456.0093689 C142.13196804 458.15325055 141.34084935 460.2976324 140.55114746 462.4425354 C138.53064668 467.918998 136.47479046 473.37860818 134.36230469 478.8203125 C133.9385556 479.92084961 133.51480652 481.02138672 133.07821655 482.15527344 C132.26874808 484.25324583 131.45050179 486.34785908 130.6222229 488.43847656 C130.08291641 489.84178223 130.08291641 489.84178223 129.53271484 491.2734375 C129.05117447 492.50199463 129.05117447 492.50199463 128.55990601 493.75537109 C127.74016921 496.29269822 127.74016921 496.29269822 129 500 C203.58 500.33 278.16 500.66 355 501 C352.48629242 544.9898827 352.48629242 544.9898827 349.48046875 550.57421875 C348.9594458 551.55890137 348.43842285 552.54358398 347.90161133 553.55810547 C347.33595459 554.59080566 346.77029785 555.62350586 346.1875 556.6875 C345.59928467 557.78980957 345.01106934 558.89211914 344.4050293 560.02783203 C340.29036606 567.71376451 336.08224095 575.35017384 331.8737793 582.98510742 C326.66240451 592.49731939 321.75182302 602.16174912 316.81484985 611.8180542 C311.88440668 621.45671191 306.86412321 631.02493014 301.6171875 640.49609375 C296.89749434 649.07149252 292.4553572 657.785468 288 666.5 C282.67643283 676.91272213 277.28494773 687.26530622 271.6171875 697.49609375 C266.89749434 706.07149252 262.4553572 714.785468 258 723.5 C252.67643283 733.91272213 247.28494773 744.26530622 241.6171875 754.49609375 C236.89749434 763.07149252 232.4553572 771.785468 228 780.5 C222.67643283 790.91272213 217.28494773 801.26530622 211.6171875 811.49609375 C206.89749278 820.07149537 202.45541354 828.78549412 198 837.5 C193.04648834 847.18834892 188.06078368 856.84168038 182.8125 866.375 C175.65212799 879.46385206 168.85432168 892.74831143 162 906 C71.58 906 -18.84 906 -112 906 C-111.05467911 901.27339555 -109.54550133 897.33854007 -107.59765625 892.984375 C-107.07396957 891.79733727 -107.07396957 891.79733727 -106.53970337 890.58631897 C-105.38521547 887.97216046 -104.22379267 885.36114181 -103.0625 882.75 C-102.24986903 880.91259131 -101.4377845 879.07494085 -100.6262207 877.23706055 C-98.93494401 873.40821788 -97.24130239 869.58043481 -95.54589844 865.75341797 C-91.95437683 857.64234579 -88.38725667 849.52057385 -84.82223511 841.39782715 C-83.68280499 838.80180312 -82.54270916 836.20607211 -81.40258789 833.61035156 C-76.55774469 822.57566727 -71.75132069 811.52513787 -66.97143555 800.4621582 C-62.35511933 789.79012223 -57.67992759 779.14426971 -53 768.5 C-47.26202834 755.44827864 -41.55093224 742.38597242 -35.89135742 729.30004883 C-31.54681368 719.25594981 -27.18464158 709.21961726 -22.8125 699.1875 C-22.45763519 698.37320526 -22.10277039 697.55891052 -21.7371521 696.71994019 C-15.71584362 682.9065703 -9.66040117 669.10832162 -3.59658813 655.31356812 C1.64882124 643.37902924 6.85786426 631.42985699 12.02832031 619.46264648 C17.03154536 607.89639495 22.10407478 596.36084444 27.17626953 584.82470703 C31.98078232 573.8958924 36.76514658 562.95918759 41.5 552 C47.00757895 539.25227891 52.58703135 526.53680167 58.17626953 513.82470703 C62.98078232 502.8958924 67.76514658 491.95918759 72.5 481 C78.00757895 468.25227891 83.58703135 455.53680167 89.17626953 442.82470703 C93.98078232 431.8958924 98.76514658 420.95918759 103.5 410 C108.23597502 399.03821639 113.02157779 388.09897393 117.82730103 377.16760254 C126.18459314 358.16164151 126.18459314 358.16164151 134.49243164 339.1340332 C135.27763594 337.33009703 136.06551401 335.52732537 136.85351562 333.72460938 C144.44389854 316.23907141 150.08998979 302.80253856 144 284 C141.86599938 279.02823259 139.42704464 274.23655992 136.9375 269.4375 C136.2521183 268.09392096 135.56772223 266.74983872 134.88427734 265.40527344 C130.99362397 257.7724887 127.02298745 250.18131096 122.98999023 242.62280273 C118.67565973 234.49144309 114.60144048 226.24001507 110.5 218 C103.91076918 204.74615737 103.91076918 204.74615737 97.0625 191.625 C92.18687526 182.5111997 87.60628774 173.25173925 83 164 C76.13547455 150.18059273 76.13547455 150.18059273 69 136.5 C63.71766956 126.63336135 58.78057493 116.59326639 53.79296875 106.57568359 C47.51943294 93.97481822 47.51943294 93.97481822 41 81.5 C35.72109897 71.639767 30.78560085 61.60681657 25.80303955 51.59481812 C21.122318 42.1921092 16.40525733 32.82072905 11.43721962 23.56544781 C8.70804795 18.44015261 6.17613158 13.24438157 3.7265625 7.98046875 C3.36473877 7.2071521 3.00291504 6.43383545 2.63012695 5.63708496 C1.7516484 3.75888329 0.87556613 1.87956113 0 0 Z " fill="#1077FF" transform="translate(554,75)"/>
<path d="M0 0 C90.42 0 180.84 0 274 0 C273.05467911 4.72660445 271.54550133 8.66145993 269.59765625 13.015625 C269.2485318 13.80698349 268.89940735 14.59834198 268.53970337 15.41368103 C267.38521547 18.02783954 266.22379267 20.63885819 265.0625 23.25 C264.24986903 25.08740869 263.4377845 26.92505915 262.6262207 28.76293945 C260.93494401 32.59178212 259.24130239 36.41956519 257.54589844 40.24658203 C253.95429412 48.357841 250.38707394 56.47979268 246.82196045 64.60272217 C245.68329817 67.19707353 244.54404509 69.79116495 243.40478516 72.38525391 C238.53513864 83.4775863 233.69911648 94.58386275 228.89013672 105.70263672 C224.54612101 115.74589294 220.18424873 125.78128418 215.8125 135.8125 C215.45763519 136.62679474 215.10277039 137.44108948 214.7371521 138.28005981 C208.71584362 152.0934297 202.66040117 165.89167838 196.59658813 179.68643188 C191.35117876 191.62097076 186.14213574 203.57014301 180.97167969 215.53735352 C175.96845464 227.10360505 170.89592522 238.63915556 165.82373047 250.17529297 C161.01921768 261.1041076 156.23485342 272.04081241 151.5 283 C145.99242105 295.74772109 140.41296865 308.46319833 134.82373047 321.17529297 C130.01921768 332.1041076 125.23485342 343.04081241 120.5 354 C114.99242105 366.74772109 109.41296865 379.46319833 103.82373047 392.17529297 C99.01921768 403.1041076 94.23485342 414.04081241 89.5 425 C83.99242105 437.74772109 78.41296865 450.46319833 72.82373047 463.17529297 C68.01921768 474.1041076 63.23485342 485.04081241 58.5 496 C53.3787817 507.85345923 48.19689786 519.67954918 43 531.5 C37.5374339 543.92667504 32.0868283 556.35819941 26.6875 568.8125 C26.17896484 569.98425781 25.67042969 571.15601563 25.14648438 572.36328125 C22.81884421 577.74104097 20.50810952 583.12595146 18.2265625 588.5234375 C17.82904785 589.4623584 17.4315332 590.4012793 17.02197266 591.36865234 C13.13811661 601.36870023 13.31816262 609.99047852 17 620 C19.36395274 625.22705521 21.9523168 630.33007064 24.5625 635.4375 C25.29563615 636.88676541 26.02821574 638.33631249 26.76025391 639.78613281 C30.75512408 647.68031326 34.82091733 655.53420642 38.99047852 663.33764648 C43.48756903 671.81019825 47.7251754 680.41397484 52 689 C58.8645237 702.81940819 58.8645237 702.81940819 66 716.5 C71.28233044 726.36663865 76.21942507 736.40673361 81.20703125 746.42431641 C87.48056706 759.02518178 87.48056706 759.02518178 94 771.5 C99.28233044 781.36663865 104.21942507 791.40673361 109.20703125 801.42431641 C115.48056706 814.02518178 115.48056706 814.02518178 122 826.5 C127.27854668 836.35957112 132.21374219 846.39183332 137.19595337 856.40316772 C141.93109039 865.91522919 146.66776859 875.41946349 151.74414062 884.75585938 C154.21904581 889.3493974 156.4439496 894.04088335 158.63989258 898.7722168 C158.96366127 899.46799583 159.28742996 900.16377487 159.62100983 900.88063812 C160.41477774 902.5867335 161.20749443 904.29331788 162 906 C115.33156116 906.18300574 68.66316021 906.32402373 21.99443345 906.40852264 C16.48806898 906.41852861 10.98170521 906.42888315 5.4753418 906.43945312 C3.83097569 906.44260085 3.83097569 906.44260085 2.15339007 906.44581217 C-15.61012328 906.48064773 -33.37343006 906.54373801 -51.13682076 906.61722237 C-69.35602194 906.69196521 -87.57511476 906.73645553 -105.79446298 906.75270796 C-117.04204462 906.76369946 -128.28904248 906.79844665 -139.53644446 906.86333174 C-147.24329704 906.90553406 -154.94984668 906.91842031 -162.65680649 906.90801102 C-167.10733727 906.90287334 -171.55684616 906.91089196 -176.00719643 906.9536438 C-180.07955006 906.99247982 -184.15019166 906.99460808 -188.22262291 906.96719116 C-189.69783742 906.96380127 -191.17315728 906.97403608 -192.64816334 906.99906546 C-203.62637506 907.17456353 -203.62637506 907.17456353 -206.87717575 904.39485866 C-208.22304337 902.31198069 -209.12350783 900.31591767 -210 898 C-210.60095584 896.8783781 -211.20191168 895.75675619 -211.8210783 894.60114574 C-212.38605432 893.46805131 -212.95103033 892.33495687 -213.53312683 891.16752625 C-213.85294393 890.52889532 -214.17276104 889.8902644 -214.50226957 889.23228103 C-215.55894847 887.11986576 -216.60991733 885.00466422 -217.66088867 882.8894043 C-218.42336535 881.36224644 -219.1862028 879.83526866 -219.94937134 878.30845642 C-221.58641429 875.03144761 -223.22093327 871.75319695 -224.85347557 868.47394371 C-227.44430919 863.26987357 -230.04091008 858.06869439 -232.63825989 852.86787415 C-236.75518237 844.62266236 -240.86836548 836.37559185 -244.97990161 828.127693 C-252.31854787 813.40613781 -259.66152107 798.68674271 -267.00886327 783.96952564 C-269.5801257 778.81868394 -272.14908093 773.66670006 -274.71628493 768.51383454 C-282.65171395 752.58896225 -290.61179833 736.69278204 -299 721 C-300.73011907 717.67725973 -302.43961738 714.34561028 -304.125 711 C-304.50914062 710.25234375 -304.89328125 709.5046875 -305.2890625 708.734375 C-308 703.35122768 -308 703.35122768 -308 700 C-286.17396729 699.96475291 -264.3501983 700.05979835 -242.5246942 700.20192909 C-238.05596268 700.23076532 -233.58722334 700.25833648 -229.1184845 700.28601074 C-215.9018364 700.36808724 -202.68520153 700.45222594 -189.46856689 700.53643799 C-179.16047643 700.60208277 -168.85238307 700.66719693 -158.54428083 700.73096704 C-154.13440208 700.75829442 -149.72452671 700.78602019 -145.31465721 700.81480408 C-136.50177353 700.87217252 -127.68891779 700.92428149 -118.87593323 700.96357012 C-114.19937474 700.98549519 -109.52309334 701.02022999 -104.84668392 701.0633378 C-101.78092887 701.08979549 -98.71516045 701.10798222 -95.64933646 701.12432003 C-94.21626111 701.13375731 -92.78320379 701.14670052 -91.35019529 701.1634531 C-89.38416815 701.18600288 -87.41799789 701.19480707 -85.45185852 701.20300293 C-83.79258819 701.21662495 -83.79258819 701.21662495 -82.09979725 701.23052216 C-78.75655682 700.9818959 -76.0956949 700.27294098 -73 699 C-71.8028166 697.28936417 -71.8028166 697.28936417 -71.40722656 695.14135742 C-71.07422546 693.92674332 -71.07422546 693.92674332 -70.73449707 692.68759155 C-70.49211304 691.80068634 -70.249729 690.91378113 -70 690 C-69.32399929 688.08321157 -68.62700511 686.17374282 -67.91308594 684.27075195 C-67.52613052 683.22772415 -67.13917511 682.18469635 -66.74049377 681.11006165 C-66.32597458 679.99737411 -65.91145538 678.88468658 -65.484375 677.73828125 C-65.04113388 676.54474533 -64.59789276 675.35120941 -64.14122009 674.12150574 C-63.18228538 671.5393389 -62.22242246 668.95751983 -61.2618103 666.37597656 C-59.71969095 662.2316693 -58.17963857 658.08659578 -56.63989258 653.94140625 C-54.75942245 648.87931414 -52.87848878 643.81739478 -50.99695683 638.75569725 C-47.75347758 630.02987462 -44.51400437 621.30257272 -41.27734375 612.57421875 C-41.04671108 611.95228449 -40.81607841 611.33035023 -40.57845688 610.68956947 C-39.64774254 608.17974384 -38.7170482 605.6699108 -37.78638649 603.16006565 C-28.32102126 577.63372772 -18.8434168 552.111939 -9.36218262 526.5914917 C-3.4236207 510.60675933 2.51279778 494.62123958 8.44140625 478.6328125 C8.9660931 477.21791516 9.49078181 475.80301851 10.01547241 474.38812256 C12.99819073 466.34466928 12.99819073 466.34466928 15.97973633 458.30078125 C16.8849017 455.8582664 17.79036123 453.41586053 18.69613647 450.97357178 C19.55555454 448.65492991 20.41368697 446.33581103 21.27041626 444.01617432 C23.36753743 438.34825983 25.4964196 432.69554752 27.68310547 427.06152344 C28.10913559 425.95493378 28.53516571 424.84834412 28.97410583 423.70822144 C29.78001323 421.61928267 30.59468488 419.53369641 31.41957092 417.45217896 C31.95232887 416.06601883 31.95232887 416.06601883 32.49584961 414.65185547 C32.81170517 413.84634247 33.12756073 413.04082947 33.45298767 412.21090698 C34.25710882 409.70119112 34.25710882 409.70119112 33 406 C-41.58 405.67 -116.16 405.34 -193 405 C-190.48673632 361.01788567 -190.48673632 361.01788567 -187.26171875 354.98828125 C-186.69549805 353.91320312 -186.12927734 352.838125 -185.54589844 351.73046875 C-184.93262695 350.60253906 -184.31935547 349.47460938 -183.6875 348.3125 C-183.04468497 347.10481178 -182.40310226 345.8964669 -181.76269531 344.6875 C-177.52804627 336.72053701 -173.18118066 328.81323508 -168.82299805 320.91333008 C-163.62605618 311.43695314 -158.73513677 301.80551215 -153.81558228 292.18341064 C-148.86104517 282.49788216 -143.81691286 272.88191705 -138.546875 263.36328125 C-134.03105283 255.16056864 -129.76689314 246.8338596 -125.5 238.5 C-120.79599434 229.31239642 -116.0626799 220.1562238 -111.0625 211.125 C-105.41745165 200.92596307 -100.119543 190.55764848 -94.81375122 180.17974854 C-89.88367283 170.54182692 -84.86372498 160.97435102 -79.6171875 151.50390625 C-74.89749434 142.92850748 -70.4553572 134.214532 -66 125.5 C-60.67643283 115.08727787 -55.28494773 104.73469378 -49.6171875 94.50390625 C-44.89749278 85.92850463 -40.45541354 77.21450588 -36 68.5 C-31.04648834 58.81165108 -26.06078368 49.15831962 -20.8125 39.625 C-13.65212799 26.53614794 -6.85432168 13.25168857 0 0 Z " fill="#1077FF" transform="translate(1233,75)"/>
</svg>
